<svg id="Calque_1" data-name="Calque 1" xmlns="http://www.w3.org/2000/svg" viewBox="0 0 583.11 273.3"><defs><style>.cls-1{fill:#091c64;}.cls-2{fill:#091c65;}.cls-3{fill:#0c1f67;}.cls-4{fill:#071a63;}.cls-5{fill:#bee3f6;}.cls-6{fill:#031762;}.cls-7{fill:#f4c117;}.cls-8{fill:#aadbf4;}.cls-9{fill:#a5d6f2;}.cls-10{fill:#a0d5f4;}.cls-11{fill:#a0cfed;}.cls-12{fill:#faf9ee;}.cls-13{fill:#f3c21d;}.cls-14{fill:#b0d9ec;}.cls-15{fill:#1b2c69;}.cls-16{fill:#93d5f8;}.cls-17{fill:#d2f0fb;}.cls-18{fill:#e5f6fb;}.cls-19{fill:#e4ebf0;}.cls-20{fill:#ccecf9;}.cls-21{fill:#8bacd4;}.cls-22{fill:#d8effa;}.cls-23{fill:#c5e8f7;}</style></defs><path class="cls-1" d="M1239,1410c-7.85-3.35-12.4-9-13.11-17.76-1-11.85,7.67-24.76,24.73-20.93l3.18,1.11c3.06,4,7.48,7.53,8.92,12,4.37,13.63-2.87,23.32-18.58,26.38Zm12.08-27.11-3.15-2.64c-6.82-.85-10,1-11.6,6.74-1.66,6,.71,11.85,5.57,13.81l4.26.46C1254.13,1398.88,1256.28,1390.85,1251.1,1382.93Z" transform="translate(-1033.79 -1297.17)"/><path class="cls-2" d="M1571,1403c-2.52-4.21-5-8.41-8.09-13.49-.39,7.38-.72,13.79-1.06,20.2l-8.82-.7v-4a21,21,0,0,0,.9-4.2c.06-9.65,0-19.3,0-29,5.9-1.56,10-.12,12.5,6.06,2,4.8,5.07,9.11,8.48,13.41,0-4.74-.11-9.49.06-14.23a25.07,25.07,0,0,1,1.24-5.06l7.69,0,.06,0a1,1,0,0,0,.44.85l0,4.14c-.09.08-.25.19-.24.25a3.56,3.56,0,0,0,.25.61c0,.72,0,1.43,0,2.14-.09.08-.25.18-.24.25a3.37,3.37,0,0,0,.23.6v22c-1.54,4.67-4.79,6.84-9.67,6.62l-.34-.22Z" transform="translate(-1033.79 -1297.17)"/><path class="cls-3" d="M1216.6,1394.69l8.7,15.16h-10.43c-4.35-3.9-4-11.37-11.45-13.52v12.3l-9.48,1.36v-38.76c6,.35,12.4,0,18.47,1.22C1221.8,1374.28,1224.69,1387,1216.6,1394.69Zm-13.12-4.79c3.06-1.26,5.47-1.77,7.16-3.15.77-.64.73-3.94,0-4.4-2-1.24-4.46-1.61-7.18-2.46Z" transform="translate(-1033.79 -1297.17)"/><path class="cls-3" d="M1463.64,1371.6h9.18c0,9.68.73,19.31-.25,28.77-.69,6.67-9.3,11.17-16.74,10.36-8.08-.89-13.49-5.68-13.82-13.18-.38-8.45-.09-16.93-.09-25.74h9.76c0,7,0,13.74,0,20.52,0,2-.2,4.4.82,5.8,1.19,1.64,3.94,3.63,5.41,3.24,2.06-.56,4.8-3,5.08-4.95.79-5.56.51-11.27.61-16.92C1463.68,1377,1463.64,1374.57,1463.64,1371.6Z" transform="translate(-1033.79 -1297.17)"/><path class="cls-2" d="M1513,1409.68c-2.83.11-5.72.6-8.47.2a8.32,8.32,0,0,1-4.81-2.9c-1.73-2.18-2.59-5-4.26-7.28-1-1.39-2.87-2.18-5.22-3.87v13.84h-9.75v-38.39c6.11.29,12.3,0,18.25,1,8.46,1.5,12.2,11.68,7.45,18.9-.8,1.22-1.79,2.32-2.77,3.58,2.39,4.08,4.67,8.13,7.13,12.06.38.61,1.58.7,2.4,1C1513,1408.47,1513,1409.08,1513,1409.68Zm-22.61-30v10.17c2.94-1.31,5.35-2,7.23-3.41.68-.51.62-3.58,0-4C1495.59,1381.22,1493.14,1380.69,1490.39,1379.71Z" transform="translate(-1033.79 -1297.17)"/><path class="cls-2" d="M1151.38,1394.64c1.49,2.64,2.79,4.95,4.11,7.25,1.23,2.14,2.49,4.27,4.32,7.42l-9.88.88c-4.64-4.18-4.2-11.74-11.68-13.71v13.26h-9.83v-38.47c6.21.29,12.23,0,18,1C1156.56,1373.91,1159.78,1387.13,1151.38,1394.64Zm-13.1-4.69c3.06-1.38,5.47-2.08,7.34-3.5.68-.51.61-3.58,0-4-2-1.25-4.45-1.77-7.29-2.77Z" transform="translate(-1033.79 -1297.17)"/><path class="cls-4" d="M1280.89,1375c.93-1.16,1.9-3.36,2.79-3.33,6.39.25,12.77.94,19.15,1.49l4,2.16q1.13,2.84,2.23,5.67c.3,5.14-.29,10-4.91,13.4,3,5.22,5.8,10.18,9,15.78H1304l-2-.22c-7.11-12.84-7.11-12.84-11-12.4,0,1,0,1.94,0,2.92-.06,9.31-.06,9.31-9,9.68a1.36,1.36,0,0,0-.87-.26l-.27-15.89Zm10.32,15.19c3.18-1.61,5.57-2.44,7.39-4,.65-.54.45-3.6-.23-4-2.06-1.15-4.55-1.55-7.16-2.33Z" transform="translate(-1033.79 -1297.17)"/><path class="cls-4" d="M1116.08,1394.7l7.64,13.79a27.64,27.64,0,0,0-4.54,1c-3.58,1.46-5.91.61-7.41-3.09a32.24,32.24,0,0,0-3.85-6.94c-1-1.28-2.66-2-5-3.71v14.08h-9.59v-38.58c4.7.42,9.49.78,14.27,1.3,2.55.28,5.4.23,7.55,1.39,5.81,3.13,7.46,11.17,3.9,17C1118.23,1392.16,1117.2,1393.26,1116.08,1394.7Zm-12.82-14.28v8.31c3.93.36,7.72.33,7.54-4.34C1110.61,1379.57,1106.54,1380.62,1103.26,1380.42Z" transform="translate(-1033.79 -1297.17)"/><path class="cls-1" d="M1407,1393c1.94-6,4.11-11.88,5.71-18,.76-2.86,2-3.61,4.78-3.64,9.81-.1,9.79-.19,12.63,9.07,2.94,9.64,5.9,19.27,9,29.27h-9.32c-4-7.8-4.28-7.89-13-7.29-5.06.36-3.11,5.06-4.87,7.44l-2.92.28-6.8-.37c1.23-4.48,2.37-8.6,3.5-12.71C1406.12,1395.73,1406.54,1394.37,1407,1393Zm13.58-12.14c-1.44,4.9-2.6,8.82-3.82,13h7.79C1423.2,1389.5,1422,1385.63,1420.55,1380.86Z" transform="translate(-1033.79 -1297.17)"/><path class="cls-1" d="M1513,1409.68c0-.6,0-1.21,0-1.81,3.37-11.43,6.7-22.87,10.21-34.26a4,4,0,0,1,2.83-2c10.24-1.45,11-.91,14.08,9,3,9.61,5.9,19.24,9,29.21h-9.47c-.09,0-.32-.09-.36-.2-2.79-7.07-5.27-8.45-13.13-7-.93.17-2.33,1.07-2.46,1.82C1522.42,1411.09,1517.2,1409.31,1513,1409.68Zm13.55-15.43,7.93-.41-4-12.81Z" transform="translate(-1033.79 -1297.17)"/><path class="cls-1" d="M1164,1371.68h22.46V1380H1174c-.16,2.06-.29,3.64-.45,5.71h11.79v8.71h-11.43v6.31h12.57v8.92H1164Z" transform="translate(-1033.79 -1297.17)"/><path class="cls-5" d="M1370.86,1393.22q1.14-5.17,2.29-10.36l1.77-2.6,2.24.5,1,.5c.6,7,1.44,14,1.72,21,.15,3.84-1.95,8.19-.75,11.49,3.4,9.39,1.28,18.88,1.9,28.29q-.48,8.58-1,17.15l-1.17,1.8a1,1,0,0,0-.88.16l-2.88,1.94-.09,0-1.2,1.84.06-.09-2,2.07,0,0-3.85,4.25c0-3.39,0-6.78,0-10.17,2.53-1.33,5-2.65,1.5-5.63-.28-.24-.11-1.11,0-1.67.67-3.93,1.4-7.84,1.94-11.78,0-.24-1.43-.68-1.94-.91,1.56-2.4,3-4.65,4.47-6.89l5.39-1.73c-.5-2.33-.94-4.4-1.39-6.48,0-.59,0-1.17,0-1.76-.78-1.16-1.44-3.21-2.35-3.32-4.45-.54-7.28,1.53-7.91,6.17l-1.72.07q1-10.11,1.91-20.21C1372.34,1403,1371.37,1398.07,1370.86,1393.22Zm5.88,44-.35,1c.33.31.71.91,1,.86a4.7,4.7,0,0,0,1.43-.87Zm-2.11,2.55c-.28-.12-.63-.4-.82-.32s-.27.51-.39.79c.28.13.62.41.82.32S1374.51,1440,1374.63,1439.72Z" transform="translate(-1033.79 -1297.17)"/><path class="cls-1" d="M1370.86,1393.22c.51,4.85,1.48,9.8-2.91,13.6l-15.83,3.36-3-.57L1346,1409q0-4.93,0-9.87l.39.09.39-.07,6.18,1.71c3,.06,6.79,1.63,7.91-2.45.23-.81-4-2.85-6.14-4.29a2.47,2.47,0,0,0-1-.17l-4.58-2.19L1346,1388l-1.07-5c.3-1.38.6-2.77.89-4.16.77-1.26,1.53-2.53,2.29-3.79L1351,1373c4.36-.62,8.7-1.59,13.08-1.77,3.92-.17,6.65,1.55,5.7,6.31a24.27,24.27,0,0,0,0,4.3c-5-1-10-3.88-14.92.66Z" transform="translate(-1033.79 -1297.17)"/><path class="cls-2" d="M1033.87,1371.67h23.22l-.88,8.9H1044.1V1387h11.52v8.59h-11.48v14.1c-2,.12-3.6.13-5.17.33-3.91.49-5.26-1.11-5.18-5.07C1034,1394,1033.87,1383,1033.87,1371.67Z" transform="translate(-1033.79 -1297.17)"/><path class="cls-6" d="M1085.88,1373c.74,6-2.06,7.68-7.79,7.27-6.68-.49-6.71-.11-4.68,6.68h11.21v7.32h-11.36v6.63h12.81c-.15,2.89-.28,5.4-.47,8.95H1065c-.34-10.59-.56-21.19-1.06-31.77-.18-3.8.79-5.43,5-5.17C1074.54,1373.26,1080.22,1373,1085.88,1373Z" transform="translate(-1033.79 -1297.17)"/><path class="cls-3" d="M1616.9,1380.35l-8,.41v28.82c-2.14.17-3.89.29-5.63.46-3.42.33-4.66-1.14-4.58-4.6.19-8,.06-16,.06-24.57l-8.52-.55v-8.63h26.7Z" transform="translate(-1033.79 -1297.17)"/><path class="cls-1" d="M1377.16,1380.76l-2.24-.5-.48-7.5,1.29-1.43,26.21.56c0,2.92-.09,5.83-.13,8.75l-1.81.24-6.71-.36c0,7.94-.31,15.36.11,22.73.28,5-1.08,7.54-6.4,6.92-2.52.1-3.71-.71-3.7-3.63,0-8.52-.29-17-.47-25.57Z" transform="translate(-1033.79 -1297.17)"/><path class="cls-7" d="M1415.88,1455.14q-.48,7.93-1,15.86l-3,5.58-6,8.39-3,0q1.06-3,2.12-6l4.92-12c.11-.94.22-1.88.32-2.81l-2.41-2-2,4.7-1.88,2c-.63.7-1.27,1.39-1.9,2.08l-4.13,7.87,1,5.22c-1,.35-2.44,1.26-2.77.94-1.56-1.46-3.73-3.14-4-5-1-7.28,3.36-12.36,8.07-17.17,2.67-2.73,5.49-4.46,10-2.31-1.41-4.59-3.49-8.54-5.27-12.63-.6-1.36-1.16-3.64-.48-4.44.85-1,3-1,4.58-1.35Z" transform="translate(-1033.79 -1297.17)"/><path class="cls-8" d="M1414,1496c-2.38,18.71-4.68,37.45-12.58,54.89-2.37,5.24-4.93,10.41-7.63,15.49-1.63,3.06-3,4.11-7.21,1.72-8-4.48-8.18-11.77-9.7-18.92l1.2-2.34.36-.19-.39-.54,1-2.2,2.89,2.07,2.06,1-1.89,1.9c-.62,1-1.91,2.23-1.73,3.12a86.74,86.74,0,0,0,2.64,8.83,16.27,16.27,0,0,0,2.09,1.13c.13,0,.51-.54.78-.84l-.91-.23c-.1-2.7-3.11-5.76,1-7.93.88,3.33,1.76,6.67,3.09,11.69,3.55-4.42,7.32-7.31,8.61-11,3.88-11.32,6.87-22.94,10-34.5a43.29,43.29,0,0,0,1.22-8.8c.08-1.42-.63-2.89-1-4.34q2-7,4-14C1413,1493.16,1409.93,1496.37,1414,1496Z" transform="translate(-1033.79 -1297.17)"/><path class="cls-8" d="M1307.76,1556.91c1-4.17,1.69-8.42,3-12.48a69.21,69.21,0,0,0,.89-39.51c-.87-3.38-.26-7.11-.77-10.61-.43-3-1.62-5.9-2.21-8.89-.23-1.15.29-2.44.46-3.67l3.72,3.26c.73,1.61,1.89,3.16,2.12,4.84a143.69,143.69,0,0,1,1.74,17.65c0,2.2,2,2.63,2,2.89.37,5.47,1.28,11.18,0,16.34-.66,2.72-.47,3.73,1.34,4.78a46.58,46.58,0,0,0,6,2.48c-.94.39-2,1.26-2.81,1.09a69.83,69.83,0,0,1-7.24-2.43c-2.07,8.11-4,15.73-6,23.35h0l-1,1Z" transform="translate(-1033.79 -1297.17)"/><path class="cls-9" d="M1336.24,1494c-1.48,7.25-2.71,14.56-4.48,21.74-1.87,7.53-.26,14.41,2.61,21.3,3.05,7.33,6.09,14.68,8.65,22.18,1.07,3.15.91,6.72,1.45,11.31-11.11-6.26-16.18-15.52-20.57-25.33l.1-.15c2.74,2.85,7,5.31,7.86,8.63,1.45,5.88,5.36,8.76,8.94,12.37l1.44-.72q-1.59-4.63-3.2-9.29-2-5.46-4.09-10.94a20.93,20.93,0,0,0-1.36-3.65c-1.75-2.87-3.69-5.63-5.54-8.43.16-19.79,4.64-38.69,11.88-57l2.14-1c0,1.26,0,2.51,0,3.77l-3.93,10.24c-.39,1.32-.77,2.65-1.15,4Z" transform="translate(-1033.79 -1297.17)"/><path class="cls-8" d="M1284.1,1486a371.55,371.55,0,0,1-8.37,59.75c-.55,2.59-2.22,4.93-3.38,7.38-1-1.42-2-2.85-2.73-3.84l-5.6-.32-2-1,0,0h4.42c-3.5-3.31-7.67-5.63-5.4-11l5.68,7.62L1270,1541v4.2c2.67-2.23,3.49-4.41,1.52-7-2.35-3.08-5.19-3.84-8.44-1.23l-2.06.06,1.93-2.21,1-.88,2.08-.84,9.3,3.56.67-10.8c0-.22,0-.45,0-.68l1-6.15v-4c2.64-3.13,3.11-12.1.72-16.08,4.78-1.9,4-4.77,1.28-7.91,0-.33,0-.65,0-1l5-4Z" transform="translate(-1033.79 -1297.17)"/><path class="cls-9" d="M1280.93,1394l.27,15.89-1.14.07-.1-6.92a26.53,26.53,0,0,1-.94-3.32c-1.69-11.32-3.25-22.67-5.1-34-.22-1.38-1.89-2.52-2.89-3.76,0-.67,0-1.33,0-2,.31-.09.9-.19.89-.26-.29-5,.5-10.33-2.85-14.78l-.14-1,.06,0,1-1.93,0-4-8-2.9-.07-1V1333l1.1-.94a8.83,8.83,0,0,1,.89,0l7.45,3.49c3.08-10.74,6-21,9-31.35l-1.22-.48c-1.54,4-1.64,9.16-7.11,10.3l-.22-.2q4.07-7.53,8.11-15.06l2.3.87c-.42,3.44-.33,7-1.36,10.3-4.3,13.57-8.66,27.15-6.91,41.64,1,7.86,2.7,15.62,4.09,23.42Q1279.47,1384.5,1280.93,1394Z" transform="translate(-1033.79 -1297.17)"/><path class="cls-9" d="M1253.82,1372.46l-3.18-1.11c1.77-6.45,3.62-12.88,5.31-19.34,3.16-12.14-3.8-22-7.34-32.68-1.66-5-3.48-10-4.92-15-.44-1.53.16-3.36.28-5.06,1.7.77,4,1.08,5,2.38,4.59,5.79,8.83,11.86,13.16,17.84.67.92,1.2,1.94,1.81,2.93l6.94-7.54.16.17c-.7,2.64-1.39,5.29-2.09,7.93l-8.93,1c0-.33,0-.66,0-1,0-.67,0-1.33,0-2a18.4,18.4,0,0,0-1.43-2.84c-1.26-1.71-3.7-3.23-3.81-5-.36-5.41-4.79-7-8.18-9.77,1.07,11.48,8.21,20.75,10.9,31.9l1.5-3.73V1345Q1256.4,1358.73,1253.82,1372.46Z" transform="translate(-1033.79 -1297.17)"/><path class="cls-10" d="M1248.94,1549.05c-2.69-9-6.15-17.82-7.91-27-2.61-13.62-5.77-27.27-4.9-41.35l7.62,4.36c3.42,7.59,5,15.47,3.5,23.91-.4-2-.81-4-1.22-6-1-5.93-1-12.25-6.08-16.69-.17,6.53-.67,13,3,18.72,0,.66.11,1.32.16,2-.13.59-.25,1.17-.38,1.75-.09,2.08-.63,4.25-.19,6.21,2.36,10.7,5,21.34,7.49,32Z" transform="translate(-1033.79 -1297.17)"/><path class="cls-11" d="M1401.94,1371.89l-26.21-.56,0,.09a3.16,3.16,0,0,1,.41-.68h19c-1.13-11.45-2.22-22.54-3.32-33.64a22.06,22.06,0,0,1,1-4.73c3.88-8.63,8.12-17.12,11.77-25.84,1.51-3.61-.7-4-3.56-2.5l-.21-.23c1.78-2,3.56-4,5.89-6.62,2.8,6.64.1,11.47-1.64,16.22-3.17,8.7-6.94,17.17-10.16,25.86a15.42,15.42,0,0,0-.54,7.25c1,6.86,2.18,13.71,3.75,20.46C1398.54,1368.8,1400.62,1370.26,1401.94,1371.89Z" transform="translate(-1033.79 -1297.17)"/><path class="cls-7" d="M1243.75,1485.07l-7.62-4.36-.81-7.24,3.29-2,1.14,1.64c4.78,7.51,17.1,10.26,26.21,5.85l1,4c-3,1.36-5.91,3.73-8.94,3.86C1253.32,1487.05,1248.52,1485.74,1243.75,1485.07Z" transform="translate(-1033.79 -1297.17)"/><path class="cls-10" d="M1351,1373l-2.93,2.13q-2-6.59-4-13.17c-.23-1.07-.46-2.14-.74-3.48l2.62,1.8A182.22,182.22,0,0,0,1334,1313l1.2-.09c3.6,9.81,7.93,19.43,10.58,29.49S1349.34,1362.79,1351,1373Z" transform="translate(-1033.79 -1297.17)"/><path class="cls-10" d="M1384,1547l-2.06-1c-1.25-3.64-2-7.17,3-9.79-6.12.61-7.51,2.75-5.85,7.72l-1,2.2c0,.24,0,.49,0,.73l-1.2,2.34,0-.11-.85-1.06q-2.46-12.52-4.93-25.06l2.83-1q.51,4,1,8c.42,2.43.84,4.86,1,6l10-2.11c5.09,2.56,5.6,5.39,2,11.15Z" transform="translate(-1033.79 -1297.17)"/><path class="cls-9" d="M1374,1522l-2.83,1-.27.1q-.89-6.06-1.75-12.1c-.08-1.33-.17-2.66-.26-4-.27-1-.55-2-.82-3q-.15-5-.28-10c-.24-.36-.47-.73-.71-1.1l-.18-3.88c-.27-2.69-.55-5.38-.82-8.06L1366,1477c0-1.68,0-3.35.08-5l1.72,1q.62,5,1.21,10c2.24,10.43,1.33,21.25,3.7,31.9,1.64-1.48,3-2.66,4.3-3.85l2.13,0c-4.85,5.93-4.62,7,2.22,11.74.7.48,1,1.47,1.53,2.23Z" transform="translate(-1033.79 -1297.17)"/><path class="cls-10" d="M1306.81,1375.32l-4-2.16c1-4.92,2.23-9.81,3.07-14.76,2.16-12.81,4.11-25.66,6.28-38.46.3-1.74,1.38-3.35,2.09-5l.72-2c0-.65.07-1.3.1-2h.91c0,.32,0,.64,0,1l1,5c0,.33,0,.65,0,1-3,2.12-3.2,3.3-.86,5.08l-.09,7.93H1314l-.67-1.06c-.11.07-.31.13-.33.22q-1.05,5.44-2.06,10.87-1.44,8-2.87,16l0,1.84L1307,1373Z" transform="translate(-1033.79 -1297.17)"/><path class="cls-12" d="M1356,1484l-4,1-3.74-1c-1.65-8.89,2.71-14.74,9.73-19.25.94,1.14,2.89,2.55,2.66,3.35-1.05,3.68-2.77,7.18-4.12,10.78a15.76,15.76,0,0,0-.53,3.32Z" transform="translate(-1033.79 -1297.17)"/><path class="cls-13" d="M1312.85,1485l-3.72-3.26-2.11-.49c-5.07-1.76,2-2.4.35-3.84l9.42-14.31,3.19-.17.91.4c-.52,2-1.06,4-1.56,6-1,3.89-2.78,7.82-2.67,11.69C1316.75,1484.57,1315.3,1484.82,1312.85,1485Z" transform="translate(-1033.79 -1297.17)"/><path class="cls-12" d="M1307.37,1477.42c1.61,1.44-5.42,2.08-.35,3.84-2.55,6-3.52,6.28-8.87,3.68-2.81-1.37-6.05-1.88-9.22-2.82-1.32,2.15-.55,6.68-4.83,3.91l-.16,0a4,4,0,0,0,.11-.78l.78-2.55,0-1.73a8.65,8.65,0,0,0,2.31-1.25c1.35-1.4,2.52-3,4-4.78,1.19,2.63,2,4.42,2.8,6.22l2-.51-1-7.43,2.87-.22c-.22,2.41-.92,4.9-.54,7.21.63,3.8,1.7,4,5.3,2.23-1.63-4.8.86-8.2,3.63-11.52Z" transform="translate(-1033.79 -1297.17)"/><path class="cls-10" d="M1264,1549l5.6.32c.71,1,1.71,2.42,2.73,3.84.31,6.42-1.56,11.42-7.68,14.79-4.26,2.35-6.41,2.16-8-2.6a29.47,29.47,0,0,1-.73-4.35l3.71,0c.09.38.17.75.25,1.13.14,1.47.28,2.94.35,3.72l7.72-3.75-3-1.24,1-3.82Zm6.68,5.77h-.4v1.48h.4Z" transform="translate(-1033.79 -1297.17)"/><path class="cls-8" d="M1377.63,1335.11c-3.7-11.59-8-23-8.8-35.29l1.93-.94,9.37,15.08-3.62,3.12L1374,1313c-.66-2-1.33-4-2-6-.08-.74-.15-1.47-.22-2.21l-.69.19c.28.69.55,1.39.82,2.09.67,2,1.33,4,2,6q1,5,2.06,10l1.93,5c.34,1.06.68,2.12,1,3.17a6.09,6.09,0,0,0,0,.74c0,1,0,2.07,0,3.11Z" transform="translate(-1033.79 -1297.17)"/><path class="cls-10" d="M1238.61,1471.49l-3.29,2q.54-24.93,1.06-49.86c.83,1.81,1.66,3.63,2.48,5.44a10.22,10.22,0,0,0-.8,2.75c0,11.44.08,22.89.13,34.34l0,1.74Z" transform="translate(-1033.79 -1297.17)"/><path class="cls-5" d="M1378,1328l-1.93-5c.73-1.16,1.47-2.31,2.35-3.69l3.05,4.9L1383,1320l1.25-.16c1.54,1.71,2.64,2.93,3.75,4.14l3-1q-1,4-2,8l-5.6-1.09-4.42,2a6.09,6.09,0,0,1,0-.74c0-1.39,0-2.79,0-4.18.07-.15.15-.29.22-.43l-.24.41C1378.65,1327.34,1378.3,1327.68,1378,1328Z" transform="translate(-1033.79 -1297.17)"/><path class="cls-14" d="M1415.88,1455.14l-6.79-13q-.69-4.25-1.37-8.47c.44-1.81.88-3.63,1.11-4.56l6.83,4.37Q1415.77,1444.32,1415.88,1455.14Z" transform="translate(-1033.79 -1297.17)"/><path class="cls-15" d="M1415.66,1433.52l-6.83-4.37c-.23.93-.67,2.75-1.11,4.56-3.3-1.6-3.85-9.7-.89-13.16,1.85,1.83,3.71,3.66,5.58,5.52,1.09-1.71-1.56-6,3.42-5Q1415.74,1427.29,1415.66,1433.52Z" transform="translate(-1033.79 -1297.17)"/><path class="cls-9" d="M1335.2,1312.91l-1.2.09-8.61-8.53-3.34,5.63-2-4.09-2.3-.12c2-6.15,8.35-8.65,12.34-4.88l.91,1.09a4.43,4.43,0,0,0,.12.89c.28.68.55,1.36.83,2,.7,1.65,1.41,3.31,2.12,5l.92,1.11Z" transform="translate(-1033.79 -1297.17)"/><path class="cls-1" d="M1085.88,1373c-5.66,0-11.34.26-17-.09-4.16-.26-5.13,1.37-5,5.17.5,10.58.72,21.18,1.06,31.77-.67-.78-1.9-1.56-1.91-2.34-.12-11.79-.09-23.57-.09-35.94,7.46,0,14.71,0,22,.06C1085.27,1371.64,1085.57,1372.53,1085.88,1373Z" transform="translate(-1033.79 -1297.17)"/><path class="cls-16" d="M1377.63,1335.11l1.3-.08,2,1.07c-.32,1.77-.73,3.52-1,5.29-.67,5.32-1.22,10.65-1.91,16-.58,4.47-1.28,8.92-1.93,13.38a3.16,3.16,0,0,0-.41.68c-.4-1.81-1.42-3.75-1.1-5.42C1376.64,1355.78,1379.25,1345.66,1377.63,1335.11Z" transform="translate(-1033.79 -1297.17)"/><path class="cls-10" d="M1414,1496c-4.08.37-1-2.84-2-4-.34-1.31-.69-2.62-1-3.93,1.56-2.58.18-3.17-2.12-3.12,4.34-1.56,2.89-5.26,3.1-8.35l3-5.58Q1414.46,1483.51,1414,1496Z" transform="translate(-1033.79 -1297.17)"/><path class="cls-9" d="M1323.9,1545.15c-2.89,4.08-5.72,8.2-8.69,12.22a36.92,36.92,0,0,1-3.5,3.58l-1.76,0c0-1.66,0-3.32,0-5h0l2.94-4.7,2.36,2.49c2.69-4.49,5.12-8.53,7.53-12.54.3,1,.73,2.36,1.16,3.75Z" transform="translate(-1033.79 -1297.17)"/><path class="cls-3" d="M1238.86,1429.05c-.82-1.81-1.65-3.63-2.48-5.44-.12-.95-.23-1.91-.35-2.86l2.92.32,1.59,3.45,2.5-3.68,2.37.37-3.46,12.7C1237.18,1434.67,1239.94,1430.64,1238.86,1429.05Z" transform="translate(-1033.79 -1297.17)"/><path class="cls-11" d="M1415.83,1421.08c-5-1-2.33,3.28-3.42,5-1.87-1.86-3.73-3.69-5.58-5.52.05-3.6,4.54-6.27,2.17-10.37l2.92-.28Q1413.87,1415.48,1415.83,1421.08Z" transform="translate(-1033.79 -1297.17)"/><path class="cls-11" d="M1391,1323l-3,1c2.15-4.76,4-9.71,6.6-14.21,1.38-2.39,4.11-4,6.23-6l.2.23Z" transform="translate(-1033.79 -1297.17)"/><path class="cls-17" d="M1383,1320l-1.57,4.18-3.05-4.9c-.88,1.38-1.62,2.53-2.35,3.69q-1-5-2.06-10l.08-.07,2.47,4.12,3.62-3.12Q1381.57,1317,1383,1320Z" transform="translate(-1033.79 -1297.17)"/><path class="cls-9" d="M1400,1380.88l1.81-.24L1407,1393c-.43,1.37-.85,2.73-1.27,4.1Z" transform="translate(-1033.79 -1297.17)"/><path class="cls-14" d="M1259.69,1561l-3.71,0-7-12,1.11-2.11Z" transform="translate(-1033.79 -1297.17)"/><path class="cls-6" d="M1553.94,1371.83c0,9.65.08,19.3,0,29a21,21,0,0,1-.9,4.2c-.07-10.41-.15-20.83-.15-31.25C1552.91,1373.1,1553.58,1372.46,1553.94,1371.83Z" transform="translate(-1033.79 -1297.17)"/><path class="cls-11" d="M1239,1421.07l-2.92-.32q1.5-5.36,3-10.71l5.14.84-1.06.42c-1,1.38-2.32,2.65-2.95,4.19A29.29,29.29,0,0,0,1239,1421.07Z" transform="translate(-1033.79 -1297.17)"/><path class="cls-15" d="M1574.75,1409.58c4.88.22,8.13-1.95,9.67-6.62.14,2.09.27,4.18.47,7.13Z" transform="translate(-1033.79 -1297.17)"/><path class="cls-14" d="M1307.76,1556.91l1.2.08q-.48,4.5-1,9l.17.18c-.56.87-1.11,1.75-1.66,2.63C1304.85,1564.42,1305.66,1560.57,1307.76,1556.91Z" transform="translate(-1033.79 -1297.17)"/><path class="cls-16" d="M1374.44,1372.76l.48,7.5-1.77,2.6Z" transform="translate(-1033.79 -1297.17)"/><path class="cls-14" d="M1310,1561l1.76,0c-1.19,1.74-2.37,3.48-3.56,5.21l-.16-.17C1308.65,1564.32,1309.3,1562.66,1310,1561Z" transform="translate(-1033.79 -1297.17)"/><path class="cls-15" d="M1571,1403l3.37,6.37Z" transform="translate(-1033.79 -1297.17)"/><path class="cls-8" d="M1317.72,1305.89l2.3.12c-1,1.34-2,2.67-3,4l-.21-3.17Z" transform="translate(-1033.79 -1297.17)"/><path class="cls-6" d="M1553.07,1409l8.82.7Z" transform="translate(-1033.79 -1297.17)"/><path class="cls-15" d="M1583.91,1372l-7.69,0Z" transform="translate(-1033.79 -1297.17)"/><path class="cls-10" d="M1316.77,1306.84l.21,3.17H1316l-.27-.14Z" transform="translate(-1033.79 -1297.17)"/><path class="cls-8" d="M1315,1313l-.72,2Z" transform="translate(-1033.79 -1297.17)"/><path class="cls-15" d="M1584.42,1380.92a3.37,3.37,0,0,1-.23-.6c0-.07.15-.17.24-.25A.5.5,0,0,1,1584.42,1380.92Z" transform="translate(-1033.79 -1297.17)"/><path class="cls-15" d="M1584.45,1377.93a3.56,3.56,0,0,1-.25-.61c0-.06.15-.17.24-.25A.52.52,0,0,1,1584.45,1377.93Z" transform="translate(-1033.79 -1297.17)"/><path class="cls-8" d="M1316,1311h-.91c.23-.37.46-.75.68-1.13l.27.14C1316,1310.35,1316,1310.68,1316,1311Z" transform="translate(-1033.79 -1297.17)"/><path class="cls-8" d="M1376.08,1548l.85,1.06Z" transform="translate(-1033.79 -1297.17)"/><path class="cls-9" d="M1270.87,1314.85l.93-1,.22.2-1,1Z" transform="translate(-1033.79 -1297.17)"/><path class="cls-15" d="M1584.41,1372.93a1,1,0,0,1-.44-.85,6.2,6.2,0,0,1,.67.47A3.34,3.34,0,0,1,1584.41,1372.93Z" transform="translate(-1033.79 -1297.17)"/><path class="cls-18" d="M1251.1,1382.93c5.18,7.92,3,16-4.92,18.37-.21-.87-.8-1.87-.56-2.59C1247.35,1393.42,1249.25,1388.18,1251.1,1382.93Z" transform="translate(-1033.79 -1297.17)"/><path class="cls-10" d="M1251.1,1382.93c-1.85,5.25-3.75,10.49-5.48,15.78-.24.72.35,1.72.56,2.59l-4.26-.46q3-10.27,6-20.55Z" transform="translate(-1033.79 -1297.17)"/><path class="cls-19" d="M1203.48,1389.9v-10c2.72.85,5.23,1.22,7.18,2.46.71.46.75,3.76,0,4.4C1209,1388.13,1206.54,1388.64,1203.48,1389.9Z" transform="translate(-1033.79 -1297.17)"/><path class="cls-19" d="M1490.39,1379.71c2.75,1,5.2,1.51,7.19,2.77.66.41.72,3.48,0,4-1.88,1.41-4.29,2.1-7.23,3.41Z" transform="translate(-1033.79 -1297.17)"/><path class="cls-19" d="M1138.28,1390v-10.26c2.84,1,5.29,1.52,7.29,2.77.66.41.73,3.48,0,4C1143.75,1387.87,1141.34,1388.57,1138.28,1390Z" transform="translate(-1033.79 -1297.17)"/><path class="cls-5" d="M1304,1410.17h9.12c-3.2-5.6-6-10.56-9-15.78,4.62-3.42,5.21-8.26,4.91-13.4,4.24-2.68,4.22,1.25,5.07,3.87l1.59-1.86a1.36,1.36,0,0,0,.82.13q0,9.42-.07,18.83c-.1.1-.3.22-.29.3a4.1,4.1,0,0,0,.26.77c0,1.66,0,3.32,0,5l.63,1.93-.07.13c0,.34,0,.67,0,1L1316,1419l-2,0-.44-.22.42.24c.69,2.31-3.47,6,2,7,0,2.34,0,4.69,0,7-1.48-.48-3-.84-4.44-1.46-2.52-1.09-5-2.34-7.45-3.53Zm7,11.18c-.25.15-.61.24-.67.43s.17.5.27.76l.91-.58Z" transform="translate(-1033.79 -1297.17)"/><path class="cls-5" d="M1282.07,1410.15c.29,3.34.57,6.68.86,10-1.12.48-2.73.67-3.23,1.52s0,2.58-.25,3.82a43.24,43.24,0,0,1-1.79,5,34.76,34.76,0,0,1-2-4.75,36.68,36.68,0,0,1-.63-5.26l-2-10.55,0-1,1-4c-.09-.65-.19-1.29-.28-1.93-3.34,1.13-2.64-1.33-2.74-3.09q0-8,0-16l.94-1q-.46-10.5-.94-21c1,1.24,2.67,2.38,2.89,3.76,1.85,11.29,3.41,22.64,5.1,34a25.91,25.91,0,0,0,.94,3.31c-3.51,1.34-1.89,4.17-1.79,6.51,0,.17,1.23.28,1.89.42l1.14-.07A1.36,1.36,0,0,1,1282.07,1410.15Zm-4.1,5.67.93.37.57-2.61-.88-.2Z" transform="translate(-1033.79 -1297.17)"/><path class="cls-10" d="M1304,1410.17l.06,17.85q1.48,16.55,3,33.08a1.24,1.24,0,0,1-.91.35c-1-7.06-2-14.13-3.19-21.16a47.5,47.5,0,0,0-2.15-6.74l-.09-.26.25-.1c.35-2.67.93-5.32,1-8,.17-5.08.07-10.17.08-15.25Z" transform="translate(-1033.79 -1297.17)"/><path class="cls-17" d="M1315.7,1383l-1.59,1.86c-.85-2.62-.83-6.55-5.07-3.87q-1.11-2.84-2.23-5.67c.07-.77.13-1.54.2-2.32,3.89,1.71,6.5-.43,9-3,0,.45.08.9.11,1.35l.45,2.73c-.06.58-.12,1.16-.19,1.73l.15,2.38v1.64C1316.23,1380.88,1316,1381.94,1315.7,1383Z" transform="translate(-1033.79 -1297.17)"/><path class="cls-19" d="M1291.21,1390.19v-10.26c2.61.78,5.1,1.18,7.16,2.33.68.38.88,3.44.23,4C1296.78,1387.75,1294.39,1388.58,1291.21,1390.19Z" transform="translate(-1033.79 -1297.17)"/><path class="cls-19" d="M1103.26,1380.42c3.28.2,7.35-.85,7.54,4,.18,4.67-3.61,4.7-7.54,4.34Z" transform="translate(-1033.79 -1297.17)"/><path class="cls-19" d="M1420.55,1380.86c1.46,4.77,2.65,8.64,4,13h-7.79C1418,1389.68,1419.11,1385.76,1420.55,1380.86Z" transform="translate(-1033.79 -1297.17)"/><path class="cls-18" d="M1526.55,1394.25l3.94-13.22,4,12.81Z" transform="translate(-1033.79 -1297.17)"/><path class="cls-18" d="M1384,1433c-1,3,2.47,7.5-3,9-.62-9.41,1.5-18.9-1.9-28.29-1.2-3.3.9-7.65.75-11.49-.28-7-1.12-14-1.72-21l4.7-.29c.18,8.52.51,17,.47,25.57,0,2.92,1.18,3.73,3.7,3.63-.35,3-.71,5.93-1.06,8.9C1382.61,1421.49,1381.84,1426.89,1384,1433Z" transform="translate(-1033.79 -1297.17)"/><path class="cls-7" d="M1387,1463.13c1,1.47,2.84,2.88,3,4.43.46,5.75-2,10.29-6.9,13.46L1382,1479l.25-1.72c4-3.28,4.09-7.61,3.42-12.24H1382l-.85-1.12c-.11.69-.21,1.38-.32,2.07L1379,1467l-2,2.13-1,1.85-4-4.12,0,0,2-2.07-.06.09,1.2-1.84.09,0,2.88-1.94a1,1,0,0,1,.88-.16h5.19l0,0c0,.92-.06,1.84-.1,2.75Z" transform="translate(-1033.79 -1297.17)"/><path class="cls-13" d="M1371.9,1466.88l4,4.12c-.93,2.4-2.19,4.73-2.68,7.22-.26,1.35.78,3,1.23,4.44a32.61,32.61,0,0,0,3.77-1.38,42.39,42.39,0,0,0,3.7-2.33L1383,1481l-3.25,3.32c-3.72.55-7.56,2-10.78-1.41q-.6-5-1.21-10c.08-.62.17-1.23.25-1.84Z" transform="translate(-1033.79 -1297.17)"/><path class="cls-15" d="M1367.76,1427c.63-4.64,3.46-6.71,7.91-6.17.91.11,1.57,2.16,2.35,3.32-2.83-.37-6.14-1.16-6.62,2.88-.15,1.27,2,2.81,3.08,4.23l1.14-.9-2.1-4.08,4.49-.37c.45,2.08.89,4.15,1.39,6.48l-5.39,1.73-5.93-3.7C1368,1429.24,1367.87,1428.1,1367.76,1427Z" transform="translate(-1033.79 -1297.17)"/><path class="cls-16" d="M1367.76,1427c.11,1.14.21,2.28.32,3.42q0,15.3,0,30.58c0,3.39,0,6.78,0,10.17-.08.61-.17,1.22-.25,1.84l-1.72-1c-.12-1.51-.22-3-.33-4.54v.11q.13-20.26.29-40.53Z" transform="translate(-1033.79 -1297.17)"/><path class="cls-20" d="M1368.06,1461q0-15.29,0-30.58l5.93,3.7c-1.46,2.24-2.91,4.49-4.47,6.89.51.23,2,.67,1.94.91-.54,3.94-1.27,7.85-1.94,11.78-.09.56-.26,1.43,0,1.67C1373,1458.31,1370.59,1459.63,1368.06,1461Z" transform="translate(-1033.79 -1297.17)"/><path class="cls-11" d="M1378,1425.87l-4.49.37,2.1,4.08-1.14.9c-1.09-1.42-3.23-3-3.08-4.23.48-4,3.79-3.25,6.62-2.88C1378,1424.7,1378,1425.28,1378,1425.87Z" transform="translate(-1033.79 -1297.17)"/><path class="cls-13" d="M1384.07,1461h-5.19l1.17-1.8Z" transform="translate(-1033.79 -1297.17)"/><path class="cls-20" d="M1376.74,1437.17l2.06,1a4.7,4.7,0,0,1-1.43.87c-.27,0-.65-.55-1-.86Z" transform="translate(-1033.79 -1297.17)"/><path class="cls-16" d="M1382.83,1381l-4.7.29-1-.5Z" transform="translate(-1033.79 -1297.17)"/><path class="cls-13" d="M1378,1461.11l-2.88,1.94Z" transform="translate(-1033.79 -1297.17)"/><path class="cls-20" d="M1374.63,1439.72c-.12.28-.19.71-.39.79s-.54-.19-.82-.32c.12-.28.18-.71.39-.79S1374.35,1439.6,1374.63,1439.72Z" transform="translate(-1033.79 -1297.17)"/><path class="cls-13" d="M1373.89,1464.84l-2,2.07Z" transform="translate(-1033.79 -1297.17)"/><path class="cls-13" d="M1375,1463.09l-1.2,1.84Z" transform="translate(-1033.79 -1297.17)"/><path class="cls-8" d="M1343.93,1445q1-18,2.08-36l3.07.64,0,2.19-.21,12.19c-1.07,3.91-1.33,7.55,3.3,9.47q-.53,5.64-1,11.26Z" transform="translate(-1033.79 -1297.17)"/><path class="cls-21" d="M1344.9,1383.08l-5.16-8.06c-1.27-1-2.48-2.9-3.81-3a139.9,139.9,0,0,0-15.73-.07c-1.25,0-2.45,1.37-3.67,2.11l-.45-2.73c6.76-.14,13.52-.29,20.28-.39,2.05,0,4.24.29,3.56-2.94l1-4.86h0c.37,2.73.4,5.56,1.21,8.15s2.42,5.09,3.68,7.61C1345.5,1380.31,1345.2,1381.7,1344.9,1383.08Z" transform="translate(-1033.79 -1297.17)"/><path class="cls-22" d="M1345.79,1378.92c-1.26-2.52-2.85-5-3.68-7.61s-.84-5.42-1.21-8.15l3.15-1.2q2,6.58,4,13.17C1347.32,1376.39,1346.56,1377.66,1345.79,1378.92Z" transform="translate(-1033.79 -1297.17)"/><path class="cls-11" d="M1353.81,1393.92c-3.29,1.95-1.63,4.48-.8,6.91l-6.18-1.71,2.4-7.39Z" transform="translate(-1033.79 -1297.17)"/><path class="cls-22" d="M1349.23,1391.73l-2.4,7.39-.39.07-.39-.09c-.09-1.85-.22-3.7-.23-5.55s.1-3.67.15-5.51Z" transform="translate(-1033.79 -1297.17)"/><path class="cls-11" d="M1349.05,1411.79l0-2.18,3,.57,0,10.59L1350,1422C1349.68,1418.62,1349.37,1415.21,1349.05,1411.79Z" transform="translate(-1033.79 -1297.17)"/><path class="cls-19" d="M1411.94,1476.58c-.21,3.09,1.24,6.79-3.1,8.35l-2.78.17-.13-.13Z" transform="translate(-1033.79 -1297.17)"/><path class="cls-12" d="M1402.91,1485l-2.6-5.69,4.72-.3Q1404,1482,1402.91,1485Z" transform="translate(-1033.79 -1297.17)"/><path class="cls-12" d="M1410,1467l-4.09-.06c.67-1.56,1.33-3.13,2-4.7l2.41,2C1410.17,1465.12,1410.06,1466.06,1410,1467Z" transform="translate(-1033.79 -1297.17)"/><path class="cls-12" d="M1398,1478.89c.34,1.74.67,3.48,1,5.22C1398.62,1482.37,1398.29,1480.63,1398,1478.89Z" transform="translate(-1033.79 -1297.17)"/><path class="cls-12" d="M1404,1468.94c-.63.7-1.27,1.39-1.9,2.08C1402.71,1470.33,1403.35,1469.64,1404,1468.94Z" transform="translate(-1033.79 -1297.17)"/><path class="cls-22" d="M1408,1506l-3.7-1.91c.65-3.35.76-6.94,2.15-9.94,1-2.15-.26-6.65,4.56-6.1.34,1.31.69,2.62,1,3.93Q1410,1499,1408,1506Z" transform="translate(-1033.79 -1297.17)"/><path class="cls-16" d="M1387.08,1551l-1.1,2c-4.11,2.17-1.1,5.23-1,7.93l-2-.06a86.74,86.74,0,0,1-2.64-8.83c-.18-.89,1.11-2.07,1.73-3.12C1383.54,1550.15,1387.05,1546.47,1387.08,1551Z" transform="translate(-1033.79 -1297.17)"/><path class="cls-18" d="M1379.05,1543.91c-1.66-5-.27-7.11,5.85-7.72-4.92,2.62-4.21,6.15-3,9.79Z" transform="translate(-1033.79 -1297.17)"/><path class="cls-18" d="M1387.08,1551c0-4.54-3.54-.86-5-2.1l1.89-1.9,4-2,2.46,3.21Z" transform="translate(-1033.79 -1297.17)"/><path class="cls-18" d="M1378.09,1546.84c0-.24,0-.49,0-.73l.39.54Z" transform="translate(-1033.79 -1297.17)"/><path class="cls-20" d="M1326,1534l2-1c1.85,2.8,3.79,5.56,5.54,8.43a20.93,20.93,0,0,1,1.36,3.65c-2,3.34,0,8.88,4.09,10.94q1.61,4.65,3.2,9.29l-1.44.72c-3.58-3.61-7.49-6.49-8.94-12.37-.81-3.32-5.12-5.78-7.86-8.63-.43-1.39-.86-2.77-1.16-3.75-2.41,4-4.84,8-7.53,12.54l-2.36-2.49L1310,1556c2-7.62,3.89-15.24,6-23.35a69.83,69.83,0,0,0,7.24,2.43C1324,1535.25,1325.08,1534.38,1326,1534Z" transform="translate(-1033.79 -1297.17)"/><path class="cls-20" d="M1310,1561c-.65,1.67-1.3,3.33-2,5q.49-4.5,1-9l1-1Z" transform="translate(-1033.79 -1297.17)"/><path class="cls-7" d="M1346.82,1465.26a76.69,76.69,0,0,1,8.15-5.18c1-.47,2.67.55,4,.89-.34,1.26-.67,2.53-1,3.79-7,4.51-11.38,10.36-9.73,19.25-4.6,1.26-4.29-3.3-6.19-5.24,0-1.26,0-2.51,0-3.77Z" transform="translate(-1033.79 -1297.17)"/><path class="cls-14" d="M1346.82,1465.26q-2.38,4.88-4.75,9.74l-2.14,1c.65-2.32,1.29-4.63,1.94-6.94q1-2.49,1.91-5l.12-2.78c.7-1.59,1.76-3.12,2-4.77a52.09,52.09,0,0,0,.12-7.29,23.12,23.12,0,0,1,2.25,1.56c.9.76,1.7,1.64,2.55,2.48Q1348.81,1459.24,1346.82,1465.26Z" transform="translate(-1033.79 -1297.17)"/><path class="cls-18" d="M1339,1556c-4.06-2.06-6.14-7.6-4.09-10.94Q1337,1550.53,1339,1556Z" transform="translate(-1033.79 -1297.17)"/><path class="cls-23" d="M1273,1504c0-.34,0-.69,0-1l.93-.89L1276,1499c-1-.65-2-1.3-3-2-4.68-3.71-1.16-8.69-2-13,.72-1.69,1.43-3.39,2.15-5.09,2.6,3.92,5.85,6.7,10.93,6.29a4,4,0,0,1-.11.78l-5,4-6.54-4.61c.25,2.57.07,5,.57,5.16,1.89.54,4,.35,6,.43,2.69,3.14,3.5,6-1.28,7.91,2.39,4,1.92,12.95-.72,16.08l-1.11-2.11Z" transform="translate(-1033.79 -1297.17)"/><path class="cls-18" d="M1266.05,1533.08c-1.22-3.27-3.93-6.25-2.07-10.15,0-.3,0-.6,0-.91l4.11,1,7.93,2.8-.67,10.8Z" transform="translate(-1033.79 -1297.17)"/><path class="cls-14" d="M1276,1525.84l-7.93-2.8c6.42-2.38,8.27-5.07,6.89-10a9.26,9.26,0,0,1,.92-.13L1277,1515c0,1.34,0,2.68,0,4q-.51,3.08-1,6.15C1276,1525.39,1276,1525.62,1276,1525.84Z" transform="translate(-1033.79 -1297.17)"/><path class="cls-16" d="M1261,1537l2.06-.06c3,.14,6.1.15,6.92,4l-3.31,3.65L1261,1537Z" transform="translate(-1033.79 -1297.17)"/><path class="cls-22" d="M1270,1541c-.82-3.89-3.91-3.9-6.92-4,3.25-2.61,6.09-1.85,8.44,1.23,2,2.6,1.15,4.78-1.52,7Z" transform="translate(-1033.79 -1297.17)"/><path class="cls-22" d="M1279,1491c-2-.08-4.12.11-6-.43-.5-.15-.32-2.59-.57-5.16L1279,1490C1279,1490.34,1279,1490.66,1279,1491Z" transform="translate(-1033.79 -1297.17)"/><path class="cls-18" d="M1276,1525.16q.49-3.08,1-6.15Q1276.49,1522.09,1276,1525.16Z" transform="translate(-1033.79 -1297.17)"/><path class="cls-18" d="M1263,1534.8l1-.88Z" transform="translate(-1033.79 -1297.17)"/><path class="cls-17" d="M1262,1335.1q-1.5,5-3,9.89v-13.38l-1.5,3.73c-2.69-11.15-9.83-20.42-10.9-31.9,3.39,2.82,7.82,4.36,8.18,9.77.11,1.72,2.55,3.24,3.81,5A18.4,18.4,0,0,1,1260,1321c0,.67,0,1.33,0,2,0,.33,0,.66,0,1l3,8-1.1.94-1.25.53,1.24.56Z" transform="translate(-1033.79 -1297.17)"/><path class="cls-17" d="M1271,1315l1-1c5.47-1.14,5.57-6.25,7.11-10.3l1.22.48c-2.95,10.3-5.89,20.61-9,31.35l-7.45-3.49c.46-3,1.6-5.53,5.07-6.06.38.8.77,1.6,1.16,2.39.6-.77.73-1.4.49-1.62a5.7,5.7,0,0,0-1.65-.77l-.06-3C1269.64,1320.31,1270.33,1317.66,1271,1315Z" transform="translate(-1033.79 -1297.17)"/><path class="cls-5" d="M1271,1360c-2.07-2.64-5-5-3-9l1-6c3.35,4.45,2.56,9.73,2.85,14.78C1271.91,1359.81,1271.32,1359.91,1271,1360Z" transform="translate(-1033.79 -1297.17)"/><path class="cls-5" d="M1269,1326c-3.47.53-4.61,3-5.07,6.06a8.83,8.83,0,0,0-.89,0l-3-8,8.93-1,.06,3Z" transform="translate(-1033.79 -1297.17)"/><path class="cls-20" d="M1280.06,1410c-.66-.14-1.89-.25-1.89-.42-.1-2.34-1.72-5.17,1.79-6.51C1280,1405.34,1280,1407.65,1280.06,1410Z" transform="translate(-1033.79 -1297.17)"/><path class="cls-20" d="M1269.05,1345l-1,6c-1.37-2.56-2.33-5.07.91-7C1269,1344.28,1269,1344.62,1269.05,1345Z" transform="translate(-1033.79 -1297.17)"/><path class="cls-20" d="M1268,1341c.69-1,1.38-2,2.08-3l0,4Z" transform="translate(-1033.79 -1297.17)"/><path class="cls-5" d="M1268,1341l2,1-1,1.93a3.39,3.39,0,0,1,0-.9l-1-1.07A8.19,8.19,0,0,1,1268,1341Z" transform="translate(-1033.79 -1297.17)"/><path class="cls-5" d="M1261.93,1334.05l-1.24-.56,1.25-.53C1261.94,1333.32,1261.93,1333.68,1261.93,1334.05Z" transform="translate(-1033.79 -1297.17)"/><path class="cls-5" d="M1260,1323c0-.67,0-1.33,0-2C1260,1321.67,1260,1322.33,1260,1323Z" transform="translate(-1033.79 -1297.17)"/><path class="cls-22" d="M1246,1503l-3.06,2c-3.69-5.72-3.19-12.19-3-18.72C1245,1490.72,1245,1497,1246,1503Z" transform="translate(-1033.79 -1297.17)"/><path class="cls-22" d="M1244,1509l-1.25-.26c.13-.59.25-1.17.38-1.76l.87,2Z" transform="translate(-1033.79 -1297.17)"/><path class="cls-17" d="M1391.83,1337.09,1387,1333l2-2q1-4,2-8L1401,1304c2.86-1.51,5.07-1.11,3.56,2.5-3.65,8.72-7.89,17.21-11.77,25.84A22.06,22.06,0,0,0,1391.83,1337.09Z" transform="translate(-1033.79 -1297.17)"/><path class="cls-23" d="M1383,1335c0,6.81,1.3,14-.36,20.31-1.36,5.19-1.1,10.39-2.39,15.43h-4.08c.65-4.46,1.35-8.91,1.93-13.38.69-5.32,1.24-10.65,1.91-16,.23-1.77.64-3.52,1-5.29Z" transform="translate(-1033.79 -1297.17)"/><path class="cls-12" d="M1238.16,1467.88l0-1.74,3.86-7.15c4.15,5.89,10.75,7.75,17,10,7,2.54,8.61,4.53,6.93,10-9.11,4.41-21.43,1.66-26.21-5.85C1241.68,1471.59,1241.41,1470.68,1238.16,1467.88Z" transform="translate(-1033.79 -1297.17)"/><path class="cls-13" d="M1266,1479c1.68-5.45.06-7.44-6.93-10-6.23-2.26-12.83-4.12-17-10l.12-2,3.42-.28c2.83,1.54,5.75,2.92,8.47,4.64,5.26,3.32,12.31,3.77,15.88,9.82l-1.12,9.73L1267,1483C1266.65,1481.66,1266.3,1480.32,1266,1479Z" transform="translate(-1033.79 -1297.17)"/><path class="cls-20" d="M1238.16,1467.88c3.25,2.8,3.52,3.71,1.59,5.25l-1.14-1.64Z" transform="translate(-1033.79 -1297.17)"/><path class="cls-22" d="M1378,1529.08l-3,.92q-.52-4-1-8l8.91,3,.19,0c0,.68,0,1.36-.08,2Z" transform="translate(-1033.79 -1297.17)"/><path class="cls-23" d="M1369,1482.93c3.22,3.37,7.06,2,10.78,1.41.41,6.9.74,13.79-3,20.06l1.22.62c-1.47,1.8-3.42,3.52-1,6-1.33,1.19-2.66,2.37-4.3,3.85C1370.34,1504.18,1371.25,1493.36,1369,1482.93Z" transform="translate(-1033.79 -1297.17)"/><path class="cls-22" d="M1377,1511c-2.45-2.44-.5-4.16,1-6a24.05,24.05,0,0,1,2.86-1.65c3-1.25,4.86.18,4.78,3.43,0,1.73.25,3.46.39,5.19l0,0-6.85-1Z" transform="translate(-1033.79 -1297.17)"/><path class="cls-8" d="M1322,1314.94c1.65,4.37,3.76,8.65,4.68,13.17.33,1.6-1.85,4.4-3.61,5.58-3.71,2.5-6.85.84-9.12-2.69h2.06l7.9.12c1.3-4.49-.65-7.14-5.94-8.11l-1.86.06c-2.34-1.78-2.15-3,.86-5.08C1320.63,1320.18,1320.75,1316.59,1322,1314.94Zm.25,5.42-.37-.14-.05.51a.92.92,0,0,0,.38-.08S1322.28,1320.46,1322.29,1320.36Z" transform="translate(-1033.79 -1297.17)"/><path class="cls-5" d="M1313.1,1360,1313,1362c.29.35.59.7.89,1a5.79,5.79,0,0,0,0,.93l-2.57.88.15.77,2.6.32c.63,1.37,1.26,2.73,1.9,4.09-2.46,2.58-5.07,4.72-9,3q.54-7,1.07-14.08Z" transform="translate(-1033.79 -1297.17)"/><path class="cls-8" d="M1310.92,1341l9.44,2.84c-4.9,3.38-11.66,5.83-6.21,13.13l-6.1.08Q1309.49,1349.06,1310.92,1341Z" transform="translate(-1033.79 -1297.17)"/><path class="cls-22" d="M1308.05,1357.08l6.1-.08c4.8-1,7.3,1.48,8.72,6.12-2.11.68-4,2.81-5.67-1.09-.44-1.06-2.69-1.36-4.11-2l-5-1.1Z" transform="translate(-1033.79 -1297.17)"/><path class="cls-16" d="M1322,1314.94c-1.29,1.65-1.41,5.24-5,3,0-.32,0-.64,0-1l-1-5c0-.32,0-.64,0-1s0-.66,0-1h.94c1-1.33,2-2.66,3-4q1,2,2,4.09C1322.05,1311.71,1322,1313.32,1322,1314.94Z" transform="translate(-1033.79 -1297.17)"/><path class="cls-18" d="M1324,1331.11l-7.9-.12c0-2.64.07-5.29.1-7.93l1.86-.06C1316.34,1329.05,1317.27,1330.32,1324,1331.11Z" transform="translate(-1033.79 -1297.17)"/><path class="cls-8" d="M1316,1312l1,5Z" transform="translate(-1033.79 -1297.17)"/><path class="cls-13" d="M1365.75,1467.45l-3,9.45L1361,1479l-5,3.18a15.76,15.76,0,0,1,.53-3.32c1.35-3.6,3.07-7.1,4.12-10.78.23-.8-1.72-2.21-2.66-3.35.34-1.26.67-2.53,1-3.79l6.74,6.59Z" transform="translate(-1033.79 -1297.17)"/><path class="cls-18" d="M1320,1410.16l-.63,11c-3.74,4.72.28,6.56,4.67,9.12h-7.14L1320,1434l2,7q-.75,6-1.48,11.91l-.57,0v-9.76l-1.13.07,1.21,19.67-3.19.17L1316,1461c.32-2.68.65-5.35,1-8l-.06-41.91c0-.33,0-.66,0-1Z" transform="translate(-1033.79 -1297.17)"/><path class="cls-14" d="M1316,1461l.78,2.11-9.42,14.31-1.17-6.52c1.94-1.88,4-3.65,5.76-5.7.92-1.07,1.3-2.62,1.92-4Z" transform="translate(-1033.79 -1297.17)"/><path class="cls-23" d="M1320,1462.94l-1.21-19.67,1.13-.07V1453l.57,0q.73-6,1.48-11.91,0,7,0,14c-.37,2.78-.73,5.57-1.1,8.36Z" transform="translate(-1033.79 -1297.17)"/><path class="cls-13" d="M1284.05,1485.23c-5.08.41-8.33-2.37-10.93-6.29l0-3.91q5-6.93,10-13.85l3.61-1.57c3-.89,6.23-.74,7.21,2.3a9.45,9.45,0,0,1-1.37,7.43c-1.84,2.48-5,4-7.54,6-1.92,1.28-5.41,1-4.89,4.73.39,2.81,2.23,3.36,4.7,2.66Zm7.07-18.74-1.09-1.18c-5,.51-6.09,1.61-5.56,7.42Z" transform="translate(-1033.79 -1297.17)"/><path class="cls-7" d="M1313.88,1461.24c-.62,1.34-1,2.89-1.92,4-1.76,2-3.82,3.82-5.76,5.7-2.77,3.32-5.26,6.72-3.63,11.52-3.6,1.82-4.67,1.57-5.3-2.23-.38-2.31.32-4.8.54-7.21l8.31-11.53a1.24,1.24,0,0,0,.91-.35Z" transform="translate(-1033.79 -1297.17)"/><path class="cls-14" d="M1284.83,1482.68c-2.47.7-4.31.15-4.7-2.66-.52-3.73,3-3.45,4.89-4.73,0,1.88-.11,3.77-.16,5.66Z" transform="translate(-1033.79 -1297.17)"/><path class="cls-14" d="M1259.94,1562.16l8.07,0-7.72,3.75C1260.22,1565.1,1260.08,1563.63,1259.94,1562.16Z" transform="translate(-1033.79 -1297.17)"/><path class="cls-14" d="M1265,1560.89l-3.33-5.55.73-.59,3.56,2.32Z" transform="translate(-1033.79 -1297.17)"/><path class="cls-8" d="M1270.7,1554.77v1.48h-.4v-1.48Z" transform="translate(-1033.79 -1297.17)"/><path class="cls-22" d="M1383,1335l-2,1.1-2-1.07c0-1,0-2.06,0-3.1l4.42-2,5.6,1.09-2,2Z" transform="translate(-1033.79 -1297.17)"/><path class="cls-17" d="M1374,1313c-.67-2-1.33-4-2-6l.09-.08c.66,2,1.33,4,2,6Z" transform="translate(-1033.79 -1297.17)"/><path class="cls-22" d="M1379,1327c0,1.39,0,2.79,0,4.18-.33-1-.67-2.11-1-3.17.35-.34.7-.68,1-1Z" transform="translate(-1033.79 -1297.17)"/><path class="cls-17" d="M1372,1307c-.27-.7-.54-1.4-.82-2.09l.69-.19c.07.74.14,1.47.22,2.21Z" transform="translate(-1033.79 -1297.17)"/><path class="cls-20" d="M1242.17,1457l-.12,2-3.86,7.15c0-11.45-.13-22.9-.13-34.34a10.22,10.22,0,0,1,.8-2.75c1.08,1.59-1.68,5.62,3.09,4.86q.1,9.72.2,19.43C1242.15,1454.56,1242.16,1455.78,1242.17,1457Zm-1.35-18.86-.9.17v22.5h.9Z" transform="translate(-1033.79 -1297.17)"/><path class="cls-22" d="M1379,1327l.24-.41c-.07.14-.15.28-.22.43Z" transform="translate(-1033.79 -1297.17)"/><path class="cls-9" d="M1411,1488.05c-4.82-.55-3.56,4-4.56,6.1-1.39,3-1.5,6.59-2.15,9.94-.16,1.58-.31,3.17-.47,4.76l-1.31-.15c.8-6,1.58-11.91,2.44-17.86.28-1.93.76-3.83,1.15-5.74l2.78-.17C1411.14,1484.88,1412.52,1485.47,1411,1488.05Z" transform="translate(-1033.79 -1297.17)"/><path class="cls-22" d="M1243.1,1411.3v5.23l3.94-.41,1.35,1.39-5.35,3.33-2.5,3.68-1.59-3.45a29.29,29.29,0,0,1,1.2-5.58C1240.78,1414,1242.09,1412.68,1243.1,1411.3Z" transform="translate(-1033.79 -1297.17)"/><path class="cls-5" d="M1283.11,1461.18q-5,6.91-10,13.85c-.35-4.84-.65-9.68-1.07-14.5a9.18,9.18,0,0,0-1-2.52l-.9-.06c0-.3,0-.6.07-.9l.9,0,.86-2.16c-.49-2.15,2-5.27-2.06-6.26q.06-4.27.13-8.55c0-.35,0-.69,0-1l0-2,0-18c0-.32,0-.64,0-1l4.93,2.47c-2.75.08-2.94,1.85-2.9,4,0,4-.29,8.18,4.92,9.51l1,3.92,0,0-6.89-.53c2.46,2,3.68,3,4.91,4l7,5.54Q1283.05,1454.09,1283.11,1461.18Z" transform="translate(-1033.79 -1297.17)"/><path class="cls-7" d="M1269.84,1448.58c4,1,1.57,4.11,2.06,6.26l-1.8,1.16-2-.38c-6.26-4-12.84-6.23-20-2.74-1.17.57-1.67,2.53-2.48,3.84l-3.42.28c0-1.22,0-2.44,0-3.66C1247.25,1445.36,1259.21,1443.86,1269.84,1448.58Z" transform="translate(-1033.79 -1297.17)"/><path class="cls-18" d="M1270,1418.05c0,.32,0,.64,0,1-.66,1.76-1.77,3.48-1.89,5.27-.29,4.23-.09,8.48-.1,12.72-.33-2.17-.55-4.38-1.08-6.5-.15-.61-1.23-1-1.88-1.48-.36-2-.73-3.94-1.09-5.91,4.32-5.88,2.81-12.69,3.1-19.22.36-1.64.72-3.28,1.07-4.92.45-4.64.9-9.28,1.36-14l1.51,15c.1,1.76-.6,4.22,2.74,3.09.09.64.19,1.28.28,1.93l-2.59,1.7,1.6,2.3,0,1C1268.59,1411.39,1270.32,1415.09,1270,1418.05Z" transform="translate(-1033.79 -1297.17)"/><path class="cls-15" d="M1264,1423.11c.36,2,.73,3.94,1.09,5.91l-.28.15,0,.31c-.26.51-.53,1-.8,1.53-4.85,4-8.94,3.73-11.1-.65-1.59-3.23-1.14-6.39,1.67-8.49C1257.81,1419.47,1261.13,1420.41,1264,1423.11Zm-1.47,3.62c-1.94-1.32-3.38-3-4.2-2.7a4.32,4.32,0,0,0-2.5,3.33c.09,1.14,1.86,2.15,2.89,3.21Z" transform="translate(-1033.79 -1297.17)"/><path class="cls-14" d="M1268.12,1399c-.35,1.64-.71,3.28-1.07,4.92v-24.75h1.07Z" transform="translate(-1033.79 -1297.17)"/><path class="cls-18" d="M1270,1439c0,.35,0,.69,0,1l-3.31.85c-.09-.47-.17-.93-.26-1.39Z" transform="translate(-1033.79 -1297.17)"/><path class="cls-18" d="M1265,1431c.25.36.49.72.72,1.09a3.56,3.56,0,0,1-.36.26L1265,1431Z" transform="translate(-1033.79 -1297.17)"/><path class="cls-18" d="M1272,1383l-.94,1Z" transform="translate(-1033.79 -1297.17)"/><path class="cls-18" d="M1264,1431c.27-.51.54-1,.8-1.53.08.5.15,1,.22,1.49l-.06.06C1264.65,1431,1264.33,1431,1264,1431Z" transform="translate(-1033.79 -1297.17)"/><path class="cls-20" d="M1268,1342l1,1.07Z" transform="translate(-1033.79 -1297.17)"/><path class="cls-3" d="M1300.94,1433.19l-.25.1.09.26-6.18-3.34a4.15,4.15,0,0,1-.53,1.72,8.2,8.2,0,0,1-1.94,1.56c-.4-.61-1.12-1.21-1.14-1.84-.12-3.45-.06-6.91-.06-10.6,2.18,0,4.39-.58,6,.17,1.41.66,2.57,2.66,3,4.3C1300.64,1428,1300.64,1430.62,1300.94,1433.19Z" transform="translate(-1033.79 -1297.17)"/><path class="cls-15" d="M1277,1434.07c-5.21-1.33-4.87-5.47-4.92-9.51,0-2.19.15-4,2.89-4l.1,0a36.68,36.68,0,0,0,.63,5.26,34.76,34.76,0,0,0,2,4.75,43.24,43.24,0,0,0,1.79-5c.29-1.24-.33-2.85.25-3.82s2.11-1,3.23-1.52c.06.57.13,1.15.19,1.72q-.12,4.38-.26,8.74Z" transform="translate(-1033.79 -1297.17)"/><path class="cls-11" d="M1282.86,1430.63q.14-4.37.26-8.74a107.16,107.16,0,0,1,1.74,10.59c.52,7.75.67,15.52,1.05,23.28a23.66,23.66,0,0,0,.81,3.84l-3.61,1.58q-.06-7.1-.13-14.19Z" transform="translate(-1033.79 -1297.17)"/><path class="cls-4" d="M1320,1410.16l-3-.09.07-.13-.63-1.93c0-1.66,0-3.32,0-5l0-1.07q0-9.4.07-18.83l0-3.31v-1.64l-.15-2.38c.07-.57.13-1.15.19-1.73,1.22-.74,2.42-2.06,3.67-2.11a139.9,139.9,0,0,1,15.73.07c1.33.09,2.54,2,3.81,3v1.75c-.17.44-.34.88-.52,1.31a42.37,42.37,0,0,1-6.08,2c-1.93.34-4,.07-6.51.07l-.28,5.8h11.86v8.38h-11.6c-.11,2.36-.2,4.12-.31,6.48h13.61c-.35,3.46-.63,6.3-.91,9.14l-3,.21h-16Z" transform="translate(-1033.79 -1297.17)"/><path class="cls-23" d="M1313.88,1461.24l-6.85-.14q-1.48-16.53-3-33.08c2.48,1.19,4.93,2.44,7.45,3.53,1.42.62,3,1,4.44,1.46a36.43,36.43,0,0,0-.53,6.13c.35,4.62,1,9.22,1.55,13.84-.32,2.67-.65,5.34-1,8ZM1311,1445h0l3.22-2c-.24-.51-.47-1-.7-1.54l-3.65-.69q-.9,5.15-1.78,10.31l1.19,0,4.28-5.3Zm-3-8,1.16.3.48-2.51-.83-.19Z" transform="translate(-1033.79 -1297.17)"/><path class="cls-14" d="M1317,1453c-.54-4.62-1.2-9.22-1.55-13.84a36.43,36.43,0,0,1,.53-6.13c0-2.34,0-4.69,0-7s0-4.65,0-7l.93-7.94Z" transform="translate(-1033.79 -1297.17)"/><path class="cls-17" d="M1316,1419c0,2.32,0,4.65,0,7-5.45-1-1.29-4.66-2-7l0,0Z" transform="translate(-1033.79 -1297.17)"/><path class="cls-21" d="M1316.49,1379.82l0,3.31a1.36,1.36,0,0,1-.82-.13C1316,1381.94,1316.23,1380.88,1316.49,1379.82Z" transform="translate(-1033.79 -1297.17)"/><path class="cls-17" d="M1311.06,1421.35l.51.61-.91.58c-.1-.26-.33-.55-.27-.76S1310.81,1421.5,1311.06,1421.35Z" transform="translate(-1033.79 -1297.17)"/><path class="cls-21" d="M1316.41,1408l.63,1.93Z" transform="translate(-1033.79 -1297.17)"/><path class="cls-17" d="M1314,1419l-.42-.24.44.22Z" transform="translate(-1033.79 -1297.17)"/><path class="cls-21" d="M1316.45,1402l0,1.07a4.1,4.1,0,0,1-.26-.77C1316.15,1402.18,1316.35,1402.06,1316.45,1402Z" transform="translate(-1033.79 -1297.17)"/><path class="cls-22" d="M1275.06,1420.54l-.1,0-4.92-2.47c.28-3-1.45-6.66,3-8.06Z" transform="translate(-1033.79 -1297.17)"/><path class="cls-22" d="M1273,1409l-1.6-2.3,2.59-1.7Z" transform="translate(-1033.79 -1297.17)"/><path class="cls-20" d="M1278,1415.82l.62-2.44.88.2-.57,2.61Z" transform="translate(-1033.79 -1297.17)"/><path class="cls-21" d="M1316.34,1375.8l.15,2.38Z" transform="translate(-1033.79 -1297.17)"/><path class="cls-15" d="M1386.84,1430a52.51,52.51,0,0,1,2.2-6.59c.52-1.08,1.87-2.37,2.91-2.42a4,4,0,0,1,3,2.18c1.25,3.18,2.06,6.53,3.24,10.45-1.5-.32-2.74-.21-3.14-.73-2-2.57-3.57-2.78-5.91-.22-1.38,1.51-3.62,2.12-2.59-1.56C1386.65,1430.73,1386.75,1430.36,1386.84,1430Z" transform="translate(-1033.79 -1297.17)"/><path class="cls-5" d="M1387,1512a102.34,102.34,0,0,1,10.21,1.43c.66.15,1.59,2.73,1.16,3.41-1,1.64-2.83,2.83-4.31,4.2l-2.12,1-2,1.92v0c-5-2.28,0-3.43.57-5.08-.84-1-1.68-2-2.51-2.93C1387.69,1514.64,1387.34,1513.32,1387,1512Z" transform="translate(-1033.79 -1297.17)"/><path class="cls-22" d="M1391.94,1522.08l2.12-1a14.66,14.66,0,0,0,2.67,1.82,37.76,37.76,0,0,1,5.91,2.6c-5.89,2.86-10.18,2.12-12.66-1.49v0Z" transform="translate(-1033.79 -1297.17)"/><path class="cls-20" d="M1386.84,1430c-.09.37-.19.74-.29,1.11l-1.56-.1v-7.84h-1V1433c-2.14-6.06-1.37-11.46,2-13.88Z" transform="translate(-1033.79 -1297.17)"/><path class="cls-22" d="M1387,1512c.34,1.32.69,2.64,1,4-1.79-.74-3.69-1.43-2-4l0,0C1386.34,1512,1386.67,1512,1387,1512Z" transform="translate(-1033.79 -1297.17)"/><path class="cls-18" d="M1384,1431v-7.82h1V1431Z" transform="translate(-1033.79 -1297.17)"/><path class="cls-13" d="M1387,1463.13l-3,.56c0-.91.07-1.83.1-2.75Z" transform="translate(-1033.79 -1297.17)"/><path class="cls-22" d="M1385,1528l2-2.06c.33,0,.66,0,1,0,0,.66,0,1.32,0,2Z" transform="translate(-1033.79 -1297.17)"/><path class="cls-15" d="M1350,1422l2.15-1.27c6.32-.18,9.19,2.07,8.81,6.93-.34,4.49-3.4,6.48-8.82,5.76-4.63-1.92-4.37-5.56-3.3-9.47C1349.23,1423.34,1349.62,1422.69,1350,1422Zm4.36,10.09c1.51-2.37,2.93-3.62,2.88-4.79s-1.55-2.35-2.41-3.53c-1,1-2.57,2-2.74,3.18S1353.15,1429.57,1354.36,1432.13Z" transform="translate(-1033.79 -1297.17)"/><path class="cls-13" d="M1350.82,1453.24c-.85-.84-1.65-1.72-2.55-2.48a23.12,23.12,0,0,0-2.25-1.56l-1-.13-2.11-2.1,1-2,7.17-.28c.83.92,2.49,2,2.33,2.71C1352.94,1449.46,1351.74,1451.31,1350.82,1453.24Z" transform="translate(-1033.79 -1297.17)"/><path class="cls-23" d="M1382,1479a42.39,42.39,0,0,1-3.7,2.33,32.61,32.61,0,0,1-3.77,1.38c-.45-1.49-1.49-3.09-1.23-4.44.49-2.49,1.75-4.82,2.68-7.22l1-1.85,2-.28a23.44,23.44,0,0,0,.85,4.46,24.36,24.36,0,0,0,2.4,3.9Z" transform="translate(-1033.79 -1297.17)"/><path class="cls-12" d="M1382.22,1477.23a24.36,24.36,0,0,1-2.4-3.9,23.44,23.44,0,0,1-.85-4.46l.06-1.85,1.81-1.08,1.17-1h3.63C1386.31,1469.62,1386.27,1474,1382.22,1477.23Z" transform="translate(-1033.79 -1297.17)"/><path class="cls-13" d="M1379,1467l-.06,1.85-2,.28Z" transform="translate(-1033.79 -1297.17)"/><path class="cls-13" d="M1382,1465l-1.17,1c.11-.69.21-1.38.32-2.07Z" transform="translate(-1033.79 -1297.17)"/><path class="cls-7" d="M1342.91,1447l2.11,2.1c-2,3.73-3.91,7.46-6.13,11.69l5,.5c0,.92-.08,1.85-.11,2.77-3.72-.18-7.23,0-7.46,5q-4.85,13.9-9.71,27.81l-1.7.22c-.39-2.25-1.12-4.51-1.09-6.76A47.17,47.17,0,0,1,1325,1483l3.66-19,3.06-3C1334.74,1455.77,1336.23,1449.29,1342.91,1447Z" transform="translate(-1033.79 -1297.17)"/><path class="cls-15" d="M1320,1434l-3.09-3.67h7.14c-4.39-2.56-8.41-4.4-4.67-9.12,2.31.35,5.44-2,7.17,2.4l-4.76.43c1.58,2,3.49,3.93,4.65,6.24.25.49-2.22,2.35-3.44,3.58l-1,.22Z" transform="translate(-1033.79 -1297.17)"/><path class="cls-15" d="M1334.48,1421.24c3,.16,3,.16,3.16,7.85l3.91,3.08-7.07,2.14Z" transform="translate(-1033.79 -1297.17)"/><path class="cls-18" d="M1336,1410.16l3-.21Z" transform="translate(-1033.79 -1297.17)"/><path class="cls-18" d="M1322,1434.06l1-.22Z" transform="translate(-1033.79 -1297.17)"/><path class="cls-21" d="M1339.22,1378.08c.18-.43.35-.87.52-1.31C1339.57,1377.21,1339.4,1377.65,1339.22,1378.08Z" transform="translate(-1033.79 -1297.17)"/><path class="cls-18" d="M1322,1410.17h0Z" transform="translate(-1033.79 -1297.17)"/><path class="cls-20" d="M1350,1422c-.38.65-.77,1.3-1.16,2l.21-12.19C1349.37,1415.21,1349.68,1418.62,1350,1422Z" transform="translate(-1033.79 -1297.17)"/><path class="cls-22" d="M1339.92,1368c-.38-2.76-.77-5.51-1.15-8.26l1.71-.29c.14,1.23.29,2.46.43,3.69Z" transform="translate(-1033.79 -1297.17)"/><path class="cls-12" d="M1336.33,1469c.23-5,3.74-5.17,7.46-5l-1.92,5-3.87,0,.23-.41-.23.41Z" transform="translate(-1033.79 -1297.17)"/><path class="cls-19" d="M1343.9,1461.26l-5-.5c2.22-4.23,4.18-8,6.13-11.69l1,.13a52.09,52.09,0,0,1-.12,7.29C1345.66,1458.14,1344.6,1459.67,1343.9,1461.26Z" transform="translate(-1033.79 -1297.17)"/><path class="cls-18" d="M1275.9,1512.87a9.26,9.26,0,0,0-.92.13l0,0-2.72-2.38-.65.72,1.39,1.56-.25,3.42-4.9-4.11L1262,1516c-.66-1.31,2.13-4.36-2-3.94l5.28-5-1.31-4,9,1Z" transform="translate(-1033.79 -1297.17)"/><path class="cls-5" d="M1260,1512.07c4.11-.42,1.32,2.63,2,3.94h0c-1.92,1.19-5.63.94-4,5l0,0-3,.11-3.14-5.9Z" transform="translate(-1033.79 -1297.17)"/><path class="cls-22" d="M1258,1525c-2.9,3.92-6.26,3.18-10,1.08,1-4,4.37-3.43,7-4.15Q1256.49,1523.49,1258,1525Z" transform="translate(-1033.79 -1297.17)"/><path class="cls-14" d="M1271,1458a9.18,9.18,0,0,1,1,2.52c.42,4.82.72,9.66,1.07,14.5,0,1.3,0,2.6,0,3.91-.72,1.7-1.43,3.4-2.15,5.09,0-.35-.1-.7-.14-1q0-7.49,0-15v-2Z" transform="translate(-1033.79 -1297.17)"/><path class="cls-8" d="M1273,1497c1,.66,2,1.31,3,2l-2.06,3.09a3.7,3.7,0,0,0-.94,0l.15-2.14-1.11-1Z" transform="translate(-1033.79 -1297.17)"/><path class="cls-19" d="M1270.85,1468q0,7.5,0,15l-2-2.07,1.11-9.73C1270.24,1470.12,1270.55,1469.06,1270.85,1468Z" transform="translate(-1033.79 -1297.17)"/><path class="cls-18" d="M1258,1525q-1.53-1.53-3-3.07c0-.27,0-.54,0-.82l3-.11,3,3,0,0-2,1Z" transform="translate(-1033.79 -1297.17)"/><path class="cls-5" d="M1261,1524l-3-3,0,0,6,1h0c0,.31,0,.61,0,.91l-2,1Z" transform="translate(-1033.79 -1297.17)"/><path class="cls-18" d="M1261,1524h.93l-2,2,1-2Z" transform="translate(-1033.79 -1297.17)"/><path class="cls-22" d="M1261,1524l-1,2-1-1Z" transform="translate(-1033.79 -1297.17)"/><path class="cls-8" d="M1262,1548l-1.24-.29,1.21.33Z" transform="translate(-1033.79 -1297.17)"/><path class="cls-23" d="M1272,1499l1.11,1Z" transform="translate(-1033.79 -1297.17)"/><path class="cls-22" d="M1244,1509l.41.23-.41-.23Z" transform="translate(-1033.79 -1297.17)"/><path class="cls-18" d="M1273,1502.11a3.7,3.7,0,0,1,.94,0l-.93.89C1273,1502.69,1273,1502.4,1273,1502.11Z" transform="translate(-1033.79 -1297.17)"/><path class="cls-5" d="M1269,1326a5.7,5.7,0,0,1,1.65.77c.24.22.11.85-.49,1.62-.39-.79-.78-1.59-1.16-2.39Z" transform="translate(-1033.79 -1297.17)"/><path class="cls-12" d="M1270.85,1468c-.3,1.06-.61,2.12-.91,3.18-3.57-6-10.62-6.5-15.88-9.82-2.72-1.72-5.64-3.1-8.47-4.64.81-1.31,1.31-3.27,2.48-3.84,7.19-3.49,13.77-1.25,20,2.75l2,1.42c0,.3-.06.6-.07.9-.7,1.58-1.39,3.16-2.14,4.89l2.92,3.16Z" transform="translate(-1033.79 -1297.17)"/><path class="cls-23" d="M1323,1354.37c2.66-2.81,3.64-5.62,0-8.21,3.72-2.06,11.44,1.56,11.84,5.24.08.71-.25,2-.65,2.15-3.44.93-7,1.64-10.43,2.42Z" transform="translate(-1033.79 -1297.17)"/><path class="cls-22" d="M1314.07,1365.9l-2.6-.32-.15-.77,2.57-.88Z" transform="translate(-1033.79 -1297.17)"/><path class="cls-22" d="M1313.93,1363c-.3-.34-.6-.69-.89-1C1313.33,1362.31,1313.63,1362.66,1313.93,1363Z" transform="translate(-1033.79 -1297.17)"/><path class="cls-16" d="M1324,1331.11c-6.68-.79-7.61-2.06-5.94-8.11C1323.3,1324,1325.25,1326.62,1324,1331.11Z" transform="translate(-1033.79 -1297.17)"/><path class="cls-12" d="M1291.12,1466.49l-6.65,6.24c-.53-5.81.56-6.91,5.56-7.42Z" transform="translate(-1033.79 -1297.17)"/><path class="cls-11" d="M1240.82,1438.14v22.66h-.9v-22.5Z" transform="translate(-1033.79 -1297.17)"/><path class="cls-20" d="M1282.86,1430.63,1283,1447l-7-5.54c-1.23-1-2.45-2-4.91-4l6.89.53,1.21,1.52.33-.32L1278,1438l-1-3.92Zm-1.1,10.3-.23-.31-.28.26.38.39Z" transform="translate(-1033.79 -1297.17)"/><path class="cls-19" d="M1270.85,1466l-2.92-3.16c.75-1.73,1.44-3.31,2.14-4.89l.9.06Z" transform="translate(-1033.79 -1297.17)"/><path class="cls-14" d="M1270.1,1456l1.8-1.16c-.29.72-.58,1.44-.86,2.16C1270.73,1456.67,1270.41,1456.34,1270.1,1456Z" transform="translate(-1033.79 -1297.17)"/><path class="cls-19" d="M1270.1,1456c.31.34.63.67.94,1l-.9,0-2-1.42Z" transform="translate(-1033.79 -1297.17)"/><path class="cls-19" d="M1262.48,1426.73l-3.81,3.84c-1-1.06-2.8-2.07-2.89-3.21a4.32,4.32,0,0,1,2.5-3.33C1259.1,1423.77,1260.54,1425.41,1262.48,1426.73Z" transform="translate(-1033.79 -1297.17)"/><path class="cls-5" d="M1311,1445l2.56.76-4.28,5.3-1.19,0q.89-5.16,1.78-10.31l3.65.69c.23.51.46,1,.7,1.54l-3.22,2-.23.41Z" transform="translate(-1033.79 -1297.17)"/><path class="cls-5" d="M1308.05,1437l.81-2.4.83.19-.48,2.51Z" transform="translate(-1033.79 -1297.17)"/><path class="cls-18" d="M1354.36,1432.13c-1.21-2.56-2.44-4-2.27-5.14s1.77-2.13,2.74-3.18c.86,1.18,2.35,2.32,2.41,3.53S1355.87,1429.76,1354.36,1432.13Z" transform="translate(-1033.79 -1297.17)"/><path class="cls-14" d="M1275,1513l-2-.1-1.39-1.56.65-.72Z" transform="translate(-1033.79 -1297.17)"/><path class="cls-18" d="M1262,1516q1,3,2,6l-6-1C1256.39,1517,1260.1,1517.2,1262,1516Z" transform="translate(-1033.79 -1297.17)"/><path class="cls-5" d="M1278,1438l1.52,1.22-.33.32L1278,1438Z" transform="translate(-1033.79 -1297.17)"/><path class="cls-5" d="M1281.76,1440.93l-.13.34-.38-.39.28-.26Z" transform="translate(-1033.79 -1297.17)"/><path class="cls-23" d="M1311,1445l-.23.41.23-.41Z" transform="translate(-1033.79 -1297.17)"/></svg>